<?xml version="1.0" encoding="UTF-8"?>
<svg xmlns="http://www.w3.org/2000/svg" version="1.1" viewBox="0 0 600 400">
  <!-- Generator: Adobe Illustrator 28.7.7, SVG Export Plug-In . SVG Version: 1.2.0 Build 194)  -->
  <g>
    <g id="_x30_0">
      <rect width="600" height="400" style="fill: #fff;"/>
      <rect width="600" height="400" style="fill: #fff; opacity: 0;"/>
    </g>
    <g id="_x30_">
      <path d="M58.317,155.389c-4.394,5.075-9.823,9.126-14.807,13.625-7.245,6.539-18.671,14.44-19.455,25.131-.474,6.461,3.903,12.65,9.699,15.545,9.676,4.834,24.235,2.219,32.451-4.594,14.636-12.137,24.279-30.123,26.287-49.031.582-5.48.521-11.174-1.505-16.299-2.025-5.124-6.311-9.601-11.716-10.673-14.827-2.939-14.017,18.285-20.954,26.296Z" style="fill: #fff0da;"/>
      <path d="M45.86,129.938c-.253-4.42-4.006-7.743-7.965-7.889-7.802-.287-21.699,16.412-13.325,22.556,6.65,4.878,21.778-6.15,21.29-14.667Z" style="fill: #fff0da;"/>
      <path d="M538.858,30.631c-3.746.835-6.01,4.363-5.52,7.608.964,6.393,17.422,15.334,21.383,7.642,3.146-6.109-8.645-16.858-15.863-15.25Z" style="fill: #fff0da;"/>
      <path d="M561.765,187.875c-1.834.409-2.942,2.136-2.703,3.725.472,3.13,8.53,7.508,10.47,3.742,1.54-2.991-4.233-8.254-7.767-7.466Z" style="fill: #fff0da;"/>
      <path d="M565.6,258.799c.219-.033.436-.07.65-.111,22.688-4.32-5.797-32.367-12.772-38.308-11.484-9.782-30.26-22.044-45.818-14.423-6.113,2.995-10.442,10.054-8.919,16.69,2.809,12.233,15.464,19.609,25.981,24.479,10.256,4.749,29.303,13.421,40.878,11.672Z" style="fill: #fff0da;"/>
      <path d="M493.043,68.208c3.324.04,6.861-.757,9.166-3.152,2.723-2.827,3.092-7.339,1.779-11.038-1.313-3.699-4.036-6.72-6.925-9.378-8.084-7.44-18.916-13.027-29.767-11.303-2.455.39-4.963,1.215-6.669,3.024-4.382,4.646-1.291,12.38,2.978,15.947,5.353,4.473,10.894,9.526,17.153,12.669,3.811,1.914,7.997,3.178,12.285,3.23Z" style="fill: #fff0da;"/>
      <path d="M134.207,378.44c11.511-4.931,24.754-13.092,29.871-25.046,2.011-4.698,2.554-10.364-.029-14.774-4.659-7.951-15.577-8.015-23.577-6.882-16.949,2.402-32.692,9.312-41.812,24.551-6.255,10.451-4.629,22.064,8.145,25.73,4.642,1.332,9.595,1.199,14.367.451,3.655-.573,8.224-1.969,13.035-4.03Z" style="fill: #fff0da;"/>
    </g>
    <g id="bg">
      <rect x="58.415" y="52.878" width="485.842" height="308.744" rx="12.214" ry="12.214" style="fill: #839ff2;"/>
      <rect x="76.749" y="70.941" width="449.312" height="273.862" rx="12.435" ry="12.435" style="fill: #3e579e;"/>
      <path d="M89.076,70.941h20.861v273.862h-33.188V83.268c0-6.803,5.524-12.327,12.327-12.327Z" style="fill: #486bd4;"/>
      <g>
        <rect x="109.937" y="97.773" width="416.124" height=".888" style="fill: #486bd4;"/>
        <g>
          <rect x="239.072" y="98.216" width=".85" height="246.587" style="fill: #486bd4;"/>
          <rect x="388.438" y="98.216" width=".85" height="246.587" style="fill: #486bd4;"/>
        </g>
      </g>
      <rect x="131.143" y="81.798" width="80.713" height="6.674" rx="3.337" ry="3.337" style="fill: #7a9cff;"/>
      <rect x="268.068" y="81.798" width="91.618" height="6.674" rx="3.337" ry="3.337" style="fill: #7a9cff;"/>
      <rect x="415.877" y="81.798" width="80.713" height="6.674" rx="3.337" ry="3.337" style="fill: #7a9cff;"/>
      <g>
        <path d="M87.482,85.135c0,1.247-1.011,2.257-2.257,2.257s-2.257-1.011-2.257-2.257,1.011-2.257,2.257-2.257,2.257,1.011,2.257,2.257Z" style="fill: #ffcf80;"/>
        <path d="M95.601,85.135c0,1.247-1.011,2.257-2.257,2.257s-2.257-1.011-2.257-2.257,1.011-2.257,2.257-2.257,2.257,1.011,2.257,2.257Z" style="fill: #839ff2;"/>
        <path d="M103.719,85.135c0,1.247-1.011,2.257-2.257,2.257s-2.257-1.011-2.257-2.257,1.011-2.257,2.257-2.257,2.257,1.011,2.257,2.257Z" style="fill: #f56c7c;"/>
      </g>
      <path d="M104.637,112.698h-21.631c-1.128,0-2.042-.914-2.042-2.042h0c0-1.128.914-2.042,2.042-2.042h21.631c1.128,0,2.042.914,2.042,2.042h0c0,1.128-.914,2.042-2.042,2.042Z" style="fill: #7a9cff;"/>
      <path d="M104.637,120.848h-21.631c-1.128,0-2.042-.914-2.042-2.042h0c0-1.128.914-2.042,2.042-2.042h21.631c1.128,0,2.042.914,2.042,2.042h0c0,1.128-.914,2.042-2.042,2.042Z" style="fill: #7a9cff;"/>
      <path d="M104.637,150.849h-21.631c-1.128,0-2.042-.914-2.042-2.042h0c0-1.128.914-2.042,2.042-2.042h21.631c1.128,0,2.042.914,2.042,2.042h0c0,1.128-.914,2.042-2.042,2.042Z" style="fill: #7a9cff;"/>
      <path d="M104.637,190.495h-21.631c-1.128,0-2.042-.914-2.042-2.042h0c0-1.128.914-2.042,2.042-2.042h21.631c1.128,0,2.042.914,2.042,2.042h0c0,1.128-.914,2.042-2.042,2.042Z" style="fill: #7a9cff;"/>
      <path d="M104.637,213.326h-21.631c-1.128,0-2.042-.914-2.042-2.042h0c0-1.128.914-2.042,2.042-2.042h21.631c1.128,0,2.042.914,2.042,2.042h0c0,1.128-.914,2.042-2.042,2.042Z" style="fill: #7a9cff;"/>
      <path d="M104.637,205.556h-21.631c-1.128,0-2.042-.914-2.042-2.042h0c0-1.128.914-2.042,2.042-2.042h21.631c1.128,0,2.042.914,2.042,2.042h0c0,1.128-.914,2.042-2.042,2.042Z" style="fill: #7a9cff;"/>
    </g>
    <g id="task">
      <path d="M162.47,142.504l-38.614-3.202c5.735-3.35,4.724-30.689,4.724-30.689h33.89v33.89Z" style="fill: #4973ed;"/>
      <path d="M217.432,175.075s-26.291,5.977-40.897.581v-33.89h33.89c2.01,20.442,4.08,26.934,7.007,33.309Z" style="fill: #c43d4d;"/>
      <rect x="137.937" y="212.511" width="33.89" height="33.89" style="fill: #fff;"/>
      <path d="M206.673,297.98s-32.721-1.689-35.707-8.175l6.614-29.913,33.59,4.497-4.497,33.591Z" style="fill: #faebd6;"/>
      <rect x="115.43" y="276.77" width="33.89" height="33.89" transform="translate(-27.441 13.982) rotate(-5.479)" style="fill: #ffc057;"/>
      <rect x="293.374" y="138.791" width="33.89" height="33.89" transform="translate(-13.453 30.343) rotate(-5.479)" style="fill: #97dade;"/>
      <rect x="266.868" y="122.357" width="33.89" height="33.89" transform="translate(20.995 -36.429) rotate(7.625)" style="fill: #faebd6;"/>
      <rect x="310.563" y="298.418" width="33.89" height="33.89" style="fill: #97dade;"/>
      <path d="M462.333,319.716s-15.098,9.295-40.207-.585l2.086-31.252,33.826,2.086s-1.515,26.034,4.294,29.751Z" style="fill: #97dade;"/>
      <rect x="401.569" y="209.054" width="33.89" height="33.89" transform="translate(-12.109 24.025) rotate(-3.241)" style="fill: #faebd6;"/>
      <rect x="479.012" y="210.934" width="33.89" height="33.89" style="fill: #ffc057;"/>
      <rect x="450.384" y="161.217" width="33.89" height="33.89" style="fill: #fff;"/>
      <path d="M440.083,146.361c-16.548,7.908-41.176,4.417-41.176,4.417,4.824-7.788,2.663-36.343,2.663-36.343h33.89l4.623,31.926Z" style="fill: #97dade;"/>
      <rect x="337.487" y="116.888" width="33.89" height="33.89" transform="translate(-11.16 34.454) rotate(-5.479)" style="fill: #ffc057;"/>
      <g>
        <rect x="475.195" y="134.925" width="33.89" height="33.89" transform="translate(-12.253 47.687) rotate(-5.479)" style="fill: #c43d4d;"/>
        <polygon points="499.05 160.079 492.73 157.64 487.138 161.463 487.505 154.7 482.141 150.563 488.687 148.822 490.964 142.442 494.643 148.13 501.414 148.324 497.142 153.58 499.05 160.079" style="fill: #fff;"/>
      </g>
      <path d="M273.447,127.751c7.957,1.731,16.101,2.394,24.058,4.124.417.091.596-.551.177-.642-7.957-1.731-16.101-2.394-24.058-4.124-.417-.091-.596.551-.177.642h0Z" style="fill: #3e579e;"/>
      <path d="M271.91,131.199c7.957,1.731,16.101,2.394,24.058,4.124.417.091.596-.551.177-.642-7.957-1.731-16.101-2.394-24.058-4.124-.417-.091-.596.551-.177.642h0Z" style="fill: #3e579e;"/>
      <g>
        <path d="M376.704,217.796c-4.358,5.494-36.339-2.215-36.339-2.215l4.497-33.59,33.59,4.497-1.748,31.309Z" style="fill: #fff;"/>
        <path d="M351.135,190.528c6.646.954,13.291,1.908,19.937,2.862.419.06.6-.581.177-.642-6.645-.954-13.291-1.908-19.937-2.862-.419-.06-.6.581-.177.642h0Z" style="fill: #3e579e;"/>
        <path d="M350.233,195.01c2.164.52,4.376.82,6.601.893.428.014.428-.651,0-.666-2.167-.072-4.316-.362-6.424-.869-.416-.1-.594.542-.177.642h0Z" style="fill: #3e579e;"/>
        <path d="M349.321,204.132c6.779,1.237,13.641,1.939,20.53,2.094.428.01.428-.656,0-.665-6.83-.154-13.632-.844-20.353-2.07-.419-.076-.598.565-.177.642h0Z" style="fill: #3e579e;"/>
        <path d="M350.309,207.908c6.08.649,12.16,1.299,18.24,1.948.425.046.422-.62,0-.665-6.08-.649-12.16-1.299-18.24-1.948-.425-.046-.422.62,0,.665h0Z" style="fill: #3e579e;"/>
      </g>
      <g>
        <rect x="167.065" y="194.874" width="33.89" height="33.89" style="fill: #97dade;"/>
        <path d="M172.07,202.068c7.725.168,15.45.337,23.175.505.365.008.466-.592.088-.654-.192-.032-.384-.063-.577-.095-.419-.069-.599.572-.177.642.192.032.384.063.577.095.029-.218.059-.436.088-.654-7.725-.168-15.45-.337-23.175-.505-.428-.009-.428.656,0,.665h0Z" style="fill: #3e579e;"/>
        <path d="M172.84,206.587c7.532.094,15.063.187,22.595.28.356.004.418-.437.168-.62-.124-.091-.249-.182-.373-.273-.346-.253-.678.324-.336.575.124.091.249.182.373.273l.168-.62c-7.532-.093-15.063-.187-22.595-.28-.428-.005-.429.66,0,.665h0Z" style="fill: #3e579e;"/>
        <path d="M172.583,209.932c4.278.192,8.562.193,12.84.002.426-.019.429-.685,0-.665-4.278.191-8.562.191-12.84-.002-.428-.019-.427.646,0,.666h0Z" style="fill: #3e579e;"/>
        <path d="M173.229,220.931c7.082.719,14.199.982,21.315.79.331-.009.451-.445.168-.62-.128-.079-.256-.158-.384-.237-.366-.225-.7.35-.336.575.128.079.256.158.384.237l.168-.62c-7.116.192-14.233-.072-21.315-.79-.426-.043-.423.623,0,.665h0Z" style="fill: #3e579e;"/>
      </g>
      <path d="M406.985,121.33c7.84-.047,15.667-.554,23.447-1.518.419-.052.425-.718,0-.666-7.78.964-15.608,1.471-23.447,1.518-.428.003-.429.668,0,.665h0Z" style="fill: #3e579e;"/>
      <path d="M407.431,125.31c4.203.249,8.414.241,12.616-.022.425-.027.428-.692,0-.666-4.202.263-8.414.271-12.616.022-.428-.025-.426.64,0,.666h0Z" style="fill: #3e579e;"/>
      <path d="M407.318,131.207c7.635.512,15.294.347,22.901-.493.421-.047.426-.713,0-.666-7.606.84-15.265,1.005-22.901.493-.427-.029-.426.637,0,.665h0Z" style="fill: #3e579e;"/>
      <path d="M407.87,145.442c8.141-.065,16.268-.621,24.342-1.665.419-.054.424-.72,0-.666-8.074,1.044-16.201,1.6-24.342,1.665-.428.003-.429.669,0,.666h0Z" style="fill: #3e579e;"/>
      <g>
        <rect x="281.971" y="283.036" width="33.89" height="33.89" transform="translate(-27.279 29.914) rotate(-5.479)" style="fill: #c43d4d;"/>
        <path d="M285.4,291.245c8.475-.553,16.95-1.106,25.425-1.658.425-.028.428-.694,0-.666-8.475.553-16.95,1.106-25.425,1.658-.425.028-.428.693,0,.665h0Z" style="fill: #fff;"/>
        <path d="M286.714,294c5.894-.535,11.788-1.07,17.682-1.605.423-.038.427-.704,0-.665-5.894.535-11.788,1.07-17.682,1.605-.423.038-.427.704,0,.665h0Z" style="fill: #fff;"/>
        <path d="M286.704,298.873c5.997.08,11.992-.183,17.959-.787.422-.043.426-.709,0-.665-5.967.604-11.962.866-17.959.787-.428-.006-.428.66,0,.666h0Z" style="fill: #fff;"/>
        <path d="M287.76,311.553l25.166-1.872c.424-.032.428-.697,0-.665-8.389.624-16.777,1.248-25.166,1.872-.424.032-.428.697,0,.666h0Z" style="fill: #fff;"/>
        <path d="M289.066,314.377c3.277-.263,6.554-.526,9.831-.79.424-.034.428-.7,0-.665-3.277.263-6.554.526-9.831.79-.424.034-.428.7,0,.665h0Z" style="fill: #fff;"/>
      </g>
      <path d="M139.622,117.144c5.343.432,10.7.643,16.06.632v-.666c-.162.016-.325.033-.487.049-.422.043-.426.708,0,.665.162-.016.325-.033.487-.049.417-.042.437-.666,0-.666-5.36.011-10.718-.2-16.06-.632-.427-.034-.425.631,0,.666h0Z" style="fill: #fff;"/>
      <path d="M140.015,120.944c5.081.601,10.196.828,15.31.678v-.666c-.171.009-.341.019-.512.028-.426.023-.429.689,0,.665.171-.009.341-.018.512-.028.425-.023.431-.678,0-.666-5.114.149-10.229-.078-15.31-.678-.424-.05-.421.616,0,.666h0Z" style="fill: #fff;"/>
      <path d="M139.924,131.777c5.063.712,10.157,1.152,15.268,1.311.428.013.428-.652,0-.666-5.05-.156-10.088-.583-15.091-1.287-.419-.059-.6.582-.177.642h0Z" style="fill: #fff;"/>
      <path d="M139.682,135.251c5.437.749,10.92,1.038,16.406.849.427-.015.429-.68,0-.665-5.424.187-10.853-.084-16.229-.825-.419-.058-.6.583-.177.642h0Z" style="fill: #fff;"/>
      <rect x="131.359" y="115.07" width="5.843" height="5.843" style="fill: #fff;"/>
      <rect x="131.359" y="129.425" width="5.843" height="5.843" transform="translate(8.275 -7.902) rotate(3.478)" style="fill: #fff;"/>
      <path d="M132.334,117.7c.458.471.917.942,1.376,1.413.194.199.407.505.696.566.278.058.492-.135.618-.361.364-.654.653-1.359.964-2.039.093-.203.186-.407.278-.611.131-.29-.298-.544-.431-.252-.201.445-.405.888-.61,1.331-.147.317-.295.635-.448.949-.063.131-.124.266-.197.391-.061.106-.068.121-.164.035-.107-.097-.204-.209-.305-.312-.475-.488-.949-.975-1.424-1.463-.224-.231-.577.122-.353.353h0Z" style="fill: #4973ed;"/>
      <path d="M132.107,131.776l1.228,1.617c.159.209.316.501.567.611.272.119.519-.036.682-.252.455-.602.827-1.282,1.222-1.924.122-.198.244-.397.365-.596.167-.275-.264-.526-.431-.252-.251.413-.505.824-.76,1.234-.189.304-.379.607-.573.908-.075.117-.146.245-.235.351-.065.078-.06.091-.129.023-.097-.096-.173-.22-.255-.328-.417-.548-.833-1.097-1.249-1.645-.082-.108-.214-.162-.341-.09-.106.06-.171.234-.089.341h0Z" style="fill: #4973ed;"/>
      <path d="M342.156,126.318c7.18-.739,14.36-1.478,21.54-2.216.422-.043.426-.709,0-.666-7.18.739-14.36,1.478-21.54,2.217-.422.043-.426.709,0,.665h0Z" style="fill: #fff;"/>
      <path d="M341.957,130.2c7.82-.91,15.663-1.604,23.521-2.079-.029-.218-.059-.436-.088-.654-.204.072-.408.144-.612.216-.401.141-.229.785.177.642.204-.072.408-.144.612-.216.333-.117.309-.678-.088-.654-7.858.475-15.701,1.168-23.521,2.079-.42.049-.425.715,0,.666h0Z" style="fill: #fff;"/>
      <path d="M343.089,134.132c6.563-.047,13.11-.533,19.61-1.443.422-.059.243-.7-.177-.642-6.44.902-12.931,1.373-19.433,1.419-.428.003-.429.669,0,.666h0Z" style="fill: #fff;"/>
      <path d="M345.806,140.506c4.98-.459,9.961-.919,14.942-1.378.423-.039.427-.705,0-.666-4.98.459-9.961.919-14.942,1.378-.423.039-.427.705,0,.666h0Z" style="fill: #fff;"/>
      <path d="M429.806,298.874c7.844.964,15.788.684,23.663,1.227.427.029.426-.636,0-.666-7.875-.542-15.819-.263-23.663-1.227-.424-.052-.42.614,0,.665h0Z" style="fill: #fff;"/>
      <path d="M429.836,304.896c7.878.441,15.756.881,23.633,1.322.428.024.427-.642,0-.665-7.878-.441-15.756-.881-23.633-1.322-.428-.024-.426.642,0,.665h0Z" style="fill: #fff;"/>
      <path d="M113.224,287.747c9.359-1.221,18.717-2.442,28.076-3.663.419-.055.424-.721,0-.665-9.359,1.221-18.718,2.442-28.076,3.663-.419.055-.424.721,0,.665h0Z" style="fill: #fff;"/>
      <path d="M114.669,292.178c8.395-1.075,16.79-2.15,25.185-3.224.419-.054.424-.72,0-.666-8.395,1.075-16.79,2.15-25.185,3.224-.419.054-.424.72,0,.665h0Z" style="fill: #fff;"/>
      <path d="M118.566,306.249c8.254-.792,16.508-1.584,24.761-2.376.422-.04.427-.706,0-.665-8.254.792-16.508,1.584-24.761,2.376-.422.04-.427.706,0,.665h0Z" style="fill: #fff;"/>
      <rect x="190.162" y="132.804" width="4.543" height="11.983" transform="translate(-16.756 26.837) rotate(-7.646)" style="fill: #4973ed;"/>
      <rect x="491.414" y="203.251" width="4.543" height="11.983" style="fill: #4973ed;"/>
      <rect x="413.605" y="201.157" width="4.543" height="11.983" style="fill: #4973ed;"/>
      <rect x="325.701" y="289.556" width="4.543" height="11.983" style="fill: #4973ed;"/>
      <rect x="349.492" y="107.905" width="4.543" height="11.983" transform="translate(-16.367 79.404) rotate(-12.588)" style="fill: #4973ed;"/>
      <rect x="194.712" y="253.788" width="4.543" height="11.983" transform="translate(96.873 -50.488) rotate(19.289)" style="fill: #4973ed;"/>
    </g>
    <g id="_x31_">
      <path d="M540.628,320.917l-40.957,8.094-3.714-13.075-3.434-12.096c-1.79-6.302-6.455-11.376-12.579-13.695-3.886-1.472-7.246-3.908-9.828-6.998s-4.374-6.83-5.135-10.92l-4.569-24.716c-.714-3.863,1.774-7.598,5.617-8.427l9.517-2.04,2.074,5.531,38.635,10.704-2.468-13.593,3.736-.677c4.071-.74,7.974,1.963,8.706,6.038l.137.745c1.31,7.213,2.096,14.515,2.35,21.838l.282,12.844c.148,6.839,1.463,13.613,3.893,20.014l5.461,14.428,2.275,6.002Z" style="fill: #f7a27e;"/>
      <path d="M488.852,235.334l-17.583,14.558-7.299-10.068,22.444-16.271c1.602-1.162,3.868-.536,4.648,1.283l.209.488c1.502,3.504.517,7.579-2.42,10.01Z" style="fill: #f7a27e;"/>
      <path d="M499.852,251.467l-16,5.961-20.634-66.223c-.648-2.079-.291-4.341.965-6.119h0c.683-.968,1.883-1.428,3.038-1.165l.649.147c1.807.41,3.312,1.656,4.052,3.354l27.93,64.045Z" style="fill: #f7a27e;"/>
      <path d="M540.628,320.917l-40.957,8.094-3.714-13.075c5.128,7.38,33.528-3.44,40.29-6.685l4.38,11.666Z" style="fill: #a65137;"/>
      <path d="M600,361.81v38.19h-104.61c-.05-.34-.1-.67-.14-1.01v-.01c-.14-1.02-.28-2.03-.41-3.03-.05-.32-.09-.64-.13-.96v-.03c-.08-.67-.17-1.33-.25-1.98-.24-1.96-.46-3.87-.66-5.74-.69-6.53-1.14-12.5-1.4-17.94-.05-1.16-.1-2.29-.13-3.4-.01-.33-.02-.67-.03-1-.02-.59-.04-1.18-.05-1.75-.14-6.82.03-12.69.4-17.68,1-13.53,3.44-20.61,4.73-22.66,6.55-4.72,15.6-9.44,25.99-13.26,8.39-3.08,16.5-5.15,23.56-6.16,17.43,5.46,37.21,29.88,53.13,58.42Z" style="fill: #694d26;"/>
      <path d="M469.983,186.341c1.144,3.362,1.956,4.573-2.384,5.738-1.634.439-2.808-1.34-3.546-4.217-.738-2.877-.009-5.55,1.629-5.97,1.638-.42,3.342,1.634,4.301,4.45Z" style="fill: #da374a;"/>
      <path d="M474.347,215.016c-.039,0-.079-.005-.119-.016-.235-.065-.374-.31-.309-.547.201-.719,3.654-2.328,6.29-2.225.245.008.436.214.429.458-.008.245-.229.425-.458.429-2.474-.076-5.104,1.342-5.444,1.672-.078.141-.228.229-.389.229Z" style="fill: #a65137;"/>
      <path d="M476.771,217.246c-.126,0-.252-.054-.34-.158-.157-.188-.133-.468.055-.625.083-.07,2.086-1.732,3.786-1.544.244.027.42.246.394.489-.027.244-.267.403-.489.394-1.103-.126-2.626.927-3.12,1.341-.083.069-.184.104-.285.104Z" style="fill: #a65137;"/>
      <path d="M515.748,260.828l-13.582,6.942-20.436-45.4,1.481-.464c3.837-1.202,8.022.006,10.627,3.069l7.037,8.272c1.667,1.96,3.094,4.113,4.248,6.413l10.625,21.167Z" style="fill: #f7a27e;"/>
      <path d="M506.489,234.078h1.554c5.762,0,10.44,4.678,10.44,10.44v17.927h-11.993v-28.367h0Z" transform="translate(-49.576 156.816) rotate(-16.606)" style="fill: #f7a27e;"/>
      <path d="M482.629,265.868c-2.527,2.401-7.134,1.047-6.123-3.188,1.011-4.235,2.859-13.083,2.677-14.042,1.081,5.697,2.333,12.089,3.445,17.23Z" style="fill: #a65137;"/>
      <path d="M483.041,268.196c-.203,0-.387-.14-.433-.346-.138-.61-.275-1.241-.413-1.891-.948-4.382-2.108-10.183-3.447-17.239.206-8.229-7.2-28.719-7.275-28.925-.084-.23.035-.484.266-.568.227-.086.484.034.568.266.308.848,7.539,20.854,7.32,29.156,1.33,6.955,2.489,12.748,3.435,17.125.138.647.275,1.274.411,1.881.054.239-.097.476-.335.53-.033.008-.065.011-.098.011Z" style="fill: #a65137;"/>
      <path d="M497.698,252.675c-.228,0-.423-.176-.441-.408-.537-6.763-11.63-32.297-12.238-33.234-.163-.183-.135-.447.048-.61.185-.165.476-.132.639.052.734.824,11.902,27.003,12.436,33.723.019.244-.163.458-.407.478-.012.001-.023.001-.036.001Z" style="fill: #a65137;"/>
      <path d="M508.757,250.143c-.217,0-.406-.158-.438-.38-1.412-9.719-6.687-14.891-6.74-14.941-.176-.17-.182-.451-.012-.628.169-.175.449-.182.626-.013.226.217,5.545,5.416,7.005,15.455.035.242-.133.467-.376.503-.021.003-.043.004-.064.004Z" style="fill: #a65137;"/>
      <path d="M518.329,248.476c-.218,0-.407-.16-.438-.382-1.034-7.395-4.694-9.359-4.731-9.378-.217-.112-.304-.379-.193-.597.11-.217.377-.307.594-.195.167.084,4.105,2.149,5.21,10.047.034.243-.136.467-.378.501-.02.003-.042.004-.062.004Z" style="fill: #a65137;"/>
      <path d="M478.953,247.879c-.115,0-.231-.045-.318-.134-2.54-2.612-6.946-3.172-9.313-3.473-.9-.114-1.345-.174-1.602-.294-.222-.103-.318-.367-.215-.59.103-.223.369-.318.59-.215.143.066.75.144,1.338.219,2.475.314,7.082.898,9.839,3.733.171.176.167.457-.009.628-.087.084-.198.125-.31.125Z" style="fill: #a65137;"/>
      <path d="M513.54,343.89c-.46.21-1,.57-1.58,1.08-.02.02-.03.03-.05.04-.94.82-1.97,1.95-2.97,3.26-7.05,9.22-14.24,27.38-13.25,50.7.01.34.03.68.06,1.03h-.89c-.03-.34-.05-.67-.06-1-.06-1.36-.09-2.69-.09-4.01v-.03c-.06-20.39,6.04-36.51,12.38-45.66.39-.55.77-1.07,1.15-1.57,1.05-1.38,2.13-2.56,3.12-3.42.04-.06.08-.08.12-.1.61-.52,1.19-.9,1.7-1.13.23-.1.49,0,.59.22.1.23,0,.49-.23.59Z" style="fill: #523c1e;"/>
      <path d="M554.97,324.22c-.15,0-.297-.076-.38-.215-11.417-18.949-28.254-15.043-28.422-14.998-.234.058-.478-.086-.537-.324-.059-.237.086-.478.323-.537.176-.044,17.629-4.129,29.395,15.402.127.209.059.482-.151.608-.071.043-.15.063-.228.063Z" style="fill: #523c1e;"/>
      <path d="M508.59,348.001c-6.22,8.128-14.392,26.3-13.345,50.984-3.31-23.806-3.558-41.286-2.653-53.513.124,2.689,1.118,6.007,5.111,6.93,4.117.958,8.207-1.881,10.887-4.401Z" style="fill: #523c1e;"/>
    </g>
    <g id="_x32_">
      <path d="M252.449,209.041l21.65,7.324c3.764,1.273,7.924.204,10.608-2.725l.174-.19c.996-1.087.631-2.831-.718-3.427l-26.556-11.728-5.158,10.746Z" style="fill: #d48972;"/>
      <path d="M323.721,236.76c-17.764-5.359-49.742-.843-49.742-.843l-.745-7.586-1.171-11.854-2.44-24.773s28.811-7.471,49.875-2.378l4.223,47.435Z" style="fill: #4973ed;"/>
      <path d="M276.552,230.7l-2.529-.559-.79-1.81-1.171-11.854c3.07-1.872,7.95-4.401,12.529-4.827,7.418-.692-8.039,19.05-8.039,19.05Z" style="fill: #294aab;"/>
      <path d="M254.997,216.814c.032-.143.623-.183-.064,3.037.276.459-1.734,12.793,1.75,18.669,4.427,7.465,9.271-1.746,9.377-1.717,1.52.428,7.207,23.861,8.287,31.05.184-.003.371-.005.551-.009-.078.621-.172,1.234-.276,1.842,0,.003.002.011.002.011h-.003c-.354,2.07-.861,4.06-1.575,5.926,0,0-.012.026-.035.079-.229.608-.491,1.201-.769,1.778-1.356,2.803-2.359,5.769-2.765,8.865l-.542,4.099-.547,4.144-.262,2.002-8.693,65.786-46.995-10.236,20.31-66.206.31-1.005c1.54-5.02,1.925-10.314,1.143-15.478-.007-.019-.011-.029-.011-.029-.158-1.069-.373-2.133-.633-3.185l-10.339-41.5,31.781-7.924Z" style="fill: #d48972;"/>
      <path d="M236.975,222.281l16.194,3.69,4.329-15.013,7.82-9.257-8.813-3.807c-3.329-1.438-7.201-.034-8.835,3.203l-10.695,21.185Z" style="fill: #d48972;"/>
      <path d="M252.584,199.648c-.099,0-.199-.033-.281-.101-.005-.004-.54-.441-1.645-1.162-.206-.134-.263-.409-.129-.614.134-.205.41-.263.614-.129,1.152.751,1.702,1.201,1.724,1.219.189.156.216.435.061.624-.088.107-.215.162-.343.162Z" style="fill: #a65137;"/>
      <path d="M251.113,200.781c-.096,0-.193-.031-.274-.096l-1.728-1.365c-.192-.152-.225-.431-.073-.623.151-.192.43-.226.623-.073l1.728,1.365c.192.152.225.431.073.623-.087.111-.217.169-.349.169Z" style="fill: #a65137;"/>
      <path d="M277.263,216.147c-3.566,5.911-15.317,28.866-20.585,37.692-.802,1.344-6.218.742-6.218.742-.249,1.384,3.548,1.489,3.996,3.087,0,0,7.659,12.003,7.678,12.401.008.25,6,3.013,10.644,4.861.552-.947,1.07-1.92,1.563-2.92,2.853-5.75,4.745-11.931,5.817-18.258l3.8-22.465c1.5-7.385,6.968-19.82-.139-20.185-.616-.033-2.457-.826-6.555,5.046Z" style="fill: #d48972;"/>
      <path d="M279.055,242.682c-.056,0-.113-.011-.168-.033-.039-.016-3.887-1.588-7.782-2.831-.233-.075-.362-.324-.288-.558.075-.233.323-.359.558-.288,3.93,1.255,7.81,2.84,7.848,2.856.227.093.335.352.243.578-.07.172-.236.275-.411.275Z" style="fill: #a65137;"/>
      <path d="M280.41,239.526c-.047,0-.096-.007-.143-.024-.041-.014-4.159-1.413-7.67-2.242-.238-.056-.386-.295-.33-.533.056-.238.295-.385.534-.33,3.554.839,7.711,2.251,7.752,2.266.232.079.356.331.277.564-.063.184-.235.3-.42.3Z" style="fill: #a65137;"/>
      <path d="M231.146,224.985l16.07,2.648,1.178-35.587,8.826-22.096c1.214-3.038.704-6.494-1.335-9.052l-.203-.255c-1.13-1.417-3.356-1.153-4.122.49l-13.54,29.019-6.873,34.833Z" style="fill: #d48972;"/>
      <path d="M225.549,228.94l11.949-.243-3.006-61.82c-.152-3.117-1.964-5.913-4.748-7.324l-.277-.141c-1.542-.782-3.368.33-3.382,2.059l-.535,67.469Z" style="fill: #d48972;"/>
      <path d="M225.794,235.105l10.741-3.128-17.762-55.146c-.896-2.78-3.214-4.867-6.074-5.465l-.285-.06c-1.584-.331-2.964,1.118-2.556,2.684l15.936,61.113Z" style="fill: #d48972;"/>
      <path d="M238.802,227.7c-.114,0-.228-.044-.315-.131-1.688-1.702-1.937-5.428-.556-8.305l.582-1.221c2.026-4.262,6.772-14.242,9.507-18.328,3.232-4.83,7.585-2.577,7.629-2.554.215.115.296.383.182.599-.115.216-.386.297-.599.184-.15-.078-3.697-1.883-6.474,2.265-2.699,4.033-7.425,13.971-9.443,18.216l-.584,1.224c-1.336,2.783-.879,6.02.386,7.295.172.174.171.455-.002.628-.086.085-.2.128-.312.128Z" style="fill: #a65137;"/>
      <path d="M234.773,227.31c-.085,0-.171-.024-.247-.075-1.932-1.299-1.954-5.542-1.743-6.941.055-.367.608-3.826,1.32-8.283,1.136-7.109,2.678-16.76,3.253-20.444.162-1.038.47-2.046.914-2.999l.617-1.323c.103-.222.366-.319.589-.214.222.104.318.367.214.589l-.617,1.323c-.409.877-.692,1.805-.841,2.76-.575,3.685-2.117,13.337-3.253,20.447-.711,4.453-1.264,7.908-1.319,8.276-.246,1.635.005,5.16,1.361,6.072.203.137.257.412.121.615-.085.128-.226.196-.369.196Z" style="fill: #a65137;"/>
      <path d="M227.689,227.56c-.092,0-.185-.028-.265-.088-2.231-1.662-2.36-4.666-2.312-5.881.032-.793.063-1.581.069-2.371l.176-22.264c.002-.245.212-.442.447-.441.245.002.442.202.44.447l-.176,22.265c-.006.799-.038,1.597-.07,2.395-.042,1.078.063,3.728,1.956,5.139.196.146.237.424.091.62-.087.117-.221.179-.356.179Z" style="fill: #a65137;"/>
      <path d="M225.842,192.462h-.003c-.245-.002-.442-.202-.44-.447.002-.318.008-1.065,4.33-1.435.246-.028.46.16.48.404.021.244-.16.459-.404.48-1.63.14-3.207.447-3.537.683-.055.183-.225.316-.425.316Z" style="fill: #a65137;"/>
      <path d="M228.932,189.595h0l-3.067-.002c-.245,0-.443-.199-.443-.444,0-.245.199-.443.444-.443h0l3.067.002c.245,0,.443.199.443.444,0,.245-.199.443-.444.443Z" style="fill: #a65137;"/>
      <path d="M242.474,192.089c-.114,0-.229-.044-.315-.132l-.179-.188c-.576-.616-1.774-1.897-3.575-2.123-.243-.031-.415-.252-.385-.496.031-.243.243-.412.496-.385,2.119.265,3.517,1.759,4.113,2.397l.162.171c.172.174.17.455-.004.627-.086.086-.199.128-.311.128Z" style="fill: #a65137;"/>
      <path d="M241.059,193.486c-.081,0-.164-.022-.237-.069-1.042-.66-2.353-1.356-2.774-1.419-.129.089-.301.108-.453.032-.219-.109-.308-.376-.198-.595.074-.148.207-.255.375-.302.641-.176,2.267.737,3.525,1.535.206.131.268.405.137.612-.084.133-.228.206-.375.206Z" style="fill: #a65137;"/>
      <path d="M216.23,198.87c-.169,0-.33-.097-.404-.261-.101-.223-.003-.486.22-.587.085-.038,2.097-.938,3.48-.681.241.045.399.277.353.519-.046.241-.279.4-.519.354-.915-.173-2.44.386-2.948.616-.059.027-.122.04-.183.04Z" style="fill: #a65137;"/>
      <path d="M215.577,196.365c-.177,0-.345-.107-.413-.282-.089-.228.023-.486.251-.575l2.285-.893c.228-.09.485.024.575.251.089.229-.023.486-.251.575l-2.285.893c-.053.021-.108.031-.162.031Z" style="fill: #a65137;"/>
      <path d="M280.723,215.464c-1.008,3.08-.346,6.061,1.478,6.659,1.825.597,4.122-1.415,5.13-4.495s.347-6.061-1.478-6.659c-1.825-.597-4.122,1.415-5.13,4.496Z" style="fill: #a65137;"/>
      <path d="M234.141,269.583c.782,5.164.397,10.458-1.143,15.478l-1.231,3.909c1.447,2.072,4.01.459,4.613-2.991,1.14-6.504-2.036-15.819-2.238-16.397Z" style="fill: #a65137;"/>
      <path d="M249.987,164.203c-1.222,3.002-1.4,4.403-.9,4.651,1.048.521,3.478-1.27,4.7-4.272,1.222-3.002,1.401-5.766.4-6.173-1.001-.408-2.978,2.792-4.2,5.794Z" style="fill: #a65137;"/>
      <path d="M225.639,164.832c.117,2.716.441,3.847.864,3.864.886.035,1.983-2.174,1.867-4.89-.117-2.716-.874-4.889-1.691-4.854-.817.035-1.156,3.163-1.039,5.879Z" style="fill: #a65137;"/>
      <path d="M210.125,175.911c.511,1.939.878,2.716,1.115,2.68.498-.075.745-1.789.234-3.728-.511-1.939-1.29-3.416-1.738-3.297-.448.118-.123,2.406.389,4.345Z" style="fill: #a65137;"/>
      <path d="M227.182,276.307c-.885,3.4-1.758,7.075-2.605,10.811,0,0-.007.013-.01.035-.014.058-.027.116-.041.173-.095.437-.191.874-.29,1.301-.02.087-.034.177-.058.27-1.609,7.241-3.086,14.59-4.251,20.577,2.984-1.687,6.442-2.579,10.172-2.853,11.907-.889,26.504,4.494,36.623,10.187,5.768,3.24,4.885-12.561,7.197-19.343-14.817-7.457-30.399-16.637-46.737-21.159Z" style="fill: #faebd6;"/>
      <path d="M227.182,276.305c-.976,1.894,8.788,9.158,20.901,15.4,12.113,6.242,24.858,7.655,25.834,5.761.976-1.894-5.438-7.122-21.711-13.796-12.608-5.171-24.049-9.259-25.025-7.365Z" style="fill: #faebd6;"/>
      <path d="M272.83,400h-87.25c.13-2.68.48-5.63,1.08-8.89,4.5-24.27,24.9-75.19,36.55-85.32,5.59-4.87,16.53-2.63,22.51-2.94,13.75-.7,26.41,5.17,27.38,28.57.01.12.01.24.02.38.04.91.04,1.86.04,2.84,0,.52.83,14.03.83,23.01.01,8.24-.21,29.69-1.16,42.35Z" style="fill: #faebd6;"/>
      <path d="M211.72,321.907c-.075,0-.151-.018-.222-.056-.228-.123-.313-.407-.19-.636.727-1.351,2.132-3.425,3.132-4.623.017-.021.036-.039.056-.057,4.209-4.988,9.598-8.487,16.015-10.399,12.351-3.615,28.282-.315,32.363,1.889,6.049,3.246,8.135,10.582,8.221,10.893.069.25-.078.508-.327.577-.252.065-.507-.077-.577-.327-.02-.072-2.071-7.263-7.761-10.317-3.864-2.085-19.738-5.304-31.653-1.815-6.262,1.865-11.515,5.284-15.611,10.161-.016.02-.034.037-.053.054-1.041,1.261-2.374,3.283-2.98,4.41-.084.157-.246.246-.413.246Z" style="fill: #b89e79;"/>
      <path d="M217.07,332.265c-.047,0-.096-.007-.143-.022-.247-.079-.382-.343-.303-.59,1.394-4.349,2.79-8.183,4.149-11.396,5.482-12.982,10.427-14.343,10.972-14.455.256-.057.502.11.554.364.052.254-.111.502-.364.554-.198.041-4.911,1.146-10.298,13.902-1.348,3.188-2.734,6.995-4.12,11.317-.063.198-.248.325-.446.325Z" style="fill: #b89e79;"/>
      <path d="M273.862,364.819c-.015,0-.029,0-.043-.002-.258-.023-.448-.252-.424-.51.198-2.145.202-4.344.011-6.535-.808-9.342-4.965-17.028-8.31-21.832-.736-1.065-1.338-1.852-1.736-2.374-.377-.492-.478-.627-.528-.752-.097-.24.02-.513.26-.609.238-.097.513.02.61.26.035.057.182.244.403.532.404.528,1.014,1.326,1.756,2.4,3.415,4.904,7.654,12.746,8.48,22.294.196,2.247.192,4.502-.012,6.702-.022.243-.227.426-.466.426Z" style="fill: #b89e79;"/>
      <path d="M266.022,310.96c-.255,0-.464-.204-.469-.461-.004-.259.202-.472.46-.477,1.476-.026,2.53-1.347,3.153-2.45,1.433-2.537,1.84-6.007,1.543-6.52-.195-.17-.199-.448-.029-.644.172-.195.482-.196.678-.027.775.678.181,3.85-.525,5.783-1.117,3.057-2.823,4.76-4.803,4.795h-.008Z" style="fill: #b89e79;"/>
      <path d="M227.478,288.617c-.008,0-.016,0-.024-.001-.258-.013-.457-.232-.444-.491.287-5.667,1.59-9.343,3.873-10.925,1.714-1.188,3.324-.696,3.391-.673.247.078.383.342.305.589-.078.245-.338.383-.586.305h0c-.051-.015-1.266-.369-2.597.565-1.388.976-3.112,3.534-3.449,10.186-.013.251-.22.445-.468.445Z" style="fill: #b89e79;"/>
      <path d="M249.63,370.19c-.01.7-.31,3.35-1.17,7.11-1.24,5.39-3.93,14.25-9.41,22.7h-1.12c4.54-6.82,7.19-13.99,8.7-19.35.37-1.31.67-2.5.92-3.56.83-3.65,1.13-6.27,1.14-6.91.01-.26.22-.46.47-.46h.01c.26,0,.46.22.46.47Z" style="fill: #b89e79;"/>
      <path d="M273.989,357.654l-.115.08c-.869-10.026-5.546-17.968-8.394-22.058,1.562.674,4.179,1.57,5.386.435,1.029-.976,2.218-2.857,2.254-4.312.035.914.044,1.863.044,2.839-.009.523.825,14.028.825,23.017Z" style="fill: #b89e79;"/>
      <path d="M270.643,306.523s-2.635,5.937-.839,9.594l-3.883-5.205s2.929-1.644,4.722-4.39Z" style="fill: #b89e79;"/>
      <path d="M214.807,316.895c2.021-1.024,3.975-1.212,5.03-.027.781.885,1.175,2.276,1.367,3.572,4.949-11.718,8.848-13.616,9.99-13.851h0c-7.699,2.294-13.266,6.593-16.387,10.307Z" style="fill: #b89e79;"/>
      <path d="M224.178,288.897c-1.609,7.241-4.715,19.877-7.945,25.906,2.984-1.687,10.135-7.908,13.865-8.181,1.679-.585,2.879-1.012,3.005-1.052-.232.026-3.867.365-7.695-2.993-3.005-2.642-1.918-10.209-1.231-13.679Z" style="fill: #b89e79;"/>
      <path d="M248.01,377.19c-1.26,5.46-3.85,14.09-9.55,22.81h-9.05c7.98-5.84,13.85-12.03,17.22-19.35.52-1.13.98-2.28,1.38-3.46Z" style="fill: #b89e79;"/>
      <path d="M268.875,290.575l.542-4.099c.407-3.096,1.41-6.062,2.765-8.864.279-.578.541-1.171.769-1.778-.289.691-2.384,5.435-4.85,6.204-2.072.644.611,3.75.772,8.537Z" style="fill: #a65137;"/>
      <path d="M257.088,213.429c-.048,0-.097-.008-.144-.023-.231-.08-.354-.333-.275-.565,1.051-3.055-.134-7.794-.736-8.161-.231-.081-.346-.331-.265-.561.082-.232.342-.347.573-.27,1.336.468,2.332,6.187,1.267,9.281-.063.184-.235.299-.419.299Z" style="fill: #a65137;"/>
      <path d="M256.295,256.645c-.044,0-.088-.006-.132-.02-.234-.073-.364-.322-.291-.557,2.212-7.07,10.529-20.919,10.882-21.505.126-.21.398-.277.609-.151.21.126.277.398.151.608-.086.143-8.614,14.344-10.795,21.314-.059.189-.234.31-.423.31Z" style="fill: #a65137;"/>
      <path d="M277.599,198.616c10.949-1.864,22.115-2.953,33.226-2.362.428.023.427-.643,0-.666-11.171-.594-22.396.512-33.403,2.386-.421.072-.243.713.177.642h0Z" style="fill: #fff;"/>
      <path d="M277.645,203.515c10.854-1.116,21.771-1.476,32.675-1.078.428.016.428-.65,0-.666-10.904-.398-21.821-.038-32.675,1.078-.422.043-.426.709,0,.665h0Z" style="fill: #fff;"/>
    </g>
    <g id="_x33_">
      <path d="M385.959,259.858l-10.571,6.2-22.653-18.579,6.739-7.729c3.042-2.637,7.612-2.448,10.426.431l16.441,16.822c.831.85.643,2.254-.383,2.855Z" style="fill: #ffc194;"/>
      <path d="M425.6,400h-46.65l-5.2-54.18-1.19-12.41-.32-3.34c-.36-3.72-2.03-7.15-4.58-9.87-.41-.43-.79-.86-1.14-1.3-4.17-5.07-5.48-10.66-5.48-15.96,0-5.34,1.33-10.38,2.38-14.31l5.48-35.15,33.7,3.09c5.46.51,9.31,5.61,8.27,11l-6.12,34.15c-.01.02-.01.04-.02.07l-.92,5.15c-.83,4.66-.63,9.44.6,14.02l1.83,6.84c0,.01,0,.02.01.04l3.21,11.96,6.88,25.68.1.34.28,1.05.29,1.08,8.59,32.05Z" style="fill: #ffc194;"/>
      <path d="M364.077,240.198c-.083,0-.167-.023-.242-.071-.205-.134-.264-.408-.13-.614.018-.026.441-.675,1.393-1.837.154-.191.435-.218.624-.062.189.155.217.435.061.624-.916,1.118-1.331,1.752-1.335,1.759-.085.13-.227.201-.372.201Z" style="fill: #d4784c;"/>
      <path d="M365.985,240.894c-.086,0-.173-.024-.249-.076-.203-.138-.256-.413-.118-.616l1.351-1.995c.139-.203.414-.256.616-.118.203.138.256.413.118.616l-1.352,1.995c-.086.126-.225.194-.367.194Z" style="fill: #d4784c;"/>
      <path d="M369.718,262.296c.221.916,7.793,6.549,10.69,13.387,0,0,1.335,9.26.061,15.733,0,0-11.026-30.257-10.751-29.12Z" style="fill: #d4784c;"/>
      <path d="M367.474,246.836l-11.298,12.877,1.012-5.3,5.457,18.066c.702,2.324-.939,8.315-3.263,9.017-2.177.658-3.614-2.56-5.007-6.065l-7.215-17.438c-.737-1.781-.347-3.748.841-5.107l.171-.194,11.298-12.878c4.824-5.133,12.471,1.559,8.004,7.022h0Z" style="fill: #ffc194;"/>
      <path d="M375.424,261.959c-2.857,3.256-8.953,5.67-16.016,7.444-3.008.763-6.193,1.411-9.379,1.952-13.682,2.343-27.409,2.866-27.409,2.866,4.836-11.331-5.776-47.595-5.776-47.595l46.086-11.109s18.837,39.21,12.493,46.441Z" style="fill: #5dd2d9;"/>
      <path d="M359.408,269.404c-3.008.763-6.193,1.411-9.379,1.952.08-7.888,4.135-20.372,4.135-20.372l5.244,18.42Z" style="fill: #2c6a6e;"/>
      <path d="M361.597,308.954c2.979,14.349,21.303-14.053,21.303-14.053l-19.114-47.276c-1.187-2.258-3.847-3.307-6.255-2.467h0c-2.408.84-3.839,3.316-3.365,5.822,0,0,5.173,47.102,7.431,57.975Z" style="fill: #ffc194;"/>
      <path d="M383.523,302.509c-.036,0-.074-.004-.111-.014-.237-.061-.38-.304-.318-.541.845-3.266-4.293-16.484-7.127-23.018-.007-.018-2.451-6.368-5.096-13.171-.089-.229.024-.485.252-.574.229-.087.487.024.574.252,2.646,6.805,5.091,13.157,5.091,13.157.332.766,8.296,19.201,7.165,23.576-.052.199-.232.332-.43.332Z" style="fill: #d4784c;"/>
      <path d="M363.228,270.544c-.132,0-.263-.059-.351-.171-.15-.194-.115-.473.078-.623,1.682-1.306,4.021-2.135,4.902-2.446.159-.057.27-.095.317-.116.222-.103.485-.005.589.218.102.222.006.484-.216.587-.058.026-.194.077-.393.147-.844.299-3.086,1.094-4.654,2.312-.081.063-.177.093-.273.093Z" style="fill: #d4784c;"/>
      <path d="M362.016,272.848c-.214,0-.402-.155-.436-.373-.039-.242.125-.47.367-.509.023-.003,2.374-.39,4.117-1.356,1.803-1.001,2.968-1.71,2.98-1.717.206-.126.481-.063.609.148.127.209.062.481-.147.609-.012.007-1.19.725-3.012,1.734-1.881,1.045-4.304,1.441-4.406,1.458-.023.003-.048.005-.071.005Z" style="fill: #d4784c;"/>
      <path d="M365.506,274.397c-.21,0-.396-.149-.436-.363-.044-.241.115-.473.356-.517,1.028-.188,2.677-1.299,3.225-1.711.196-.148.476-.108.621.088.147.196.108.474-.088.621-.087.065-2.155,1.611-3.598,1.875-.027.005-.054.007-.081.007Z" style="fill: #d4784c;"/>
      <path d="M433.5,400h-90.88c-.18-.39-.35-.79-.53-1.18-.02-.02-.03-.05-.04-.06-4.6-10.25-8.72-20.54-11.57-30.95-1.36-4.51,16.52-13.91,39.95-21.01,1.11-.34,2.22-.66,3.32-.98,15.06-4.32,28.39-6.47,35.71-6.02,3.36.21,5.46.97,5.87,2.32,0,0,3.24,9.4,7.75,23.58l.01.02.01.03.01.01c.77,2.44,1.59,5.02,2.43,7.73.17.54.34,1.08.51,1.64.51,1.64,1.03,3.33,1.56,5.05.79,2.57,1.59,5.23,2.41,7.95.46,1.54.92,3.09,1.38,4.66.45,1.53.9,3.08,1.35,4.64.26.85.5,1.71.75,2.57Z" style="fill: #f3ab33;"/>
      <path d="M354.513,249.323c.578,4.429,4.041,8.991,7.409,7.709s2.921-6.992.408-10.684c-1.681-2.47-3.971-3.454-5.559-2.849s-2.645,2.862-2.258,5.825Z" style="fill: #bf381d;"/>
      <path d="M382.337,251.819h4.317c4.522,0,8.194,3.672,8.194,8.194v6.413h-12.512v-14.607h0Z" transform="translate(-33.073 58.257) rotate(-8.225)" style="fill: #ffc194;"/>
      <path d="M391.491,253.664h4.318c4.522,0,8.194,3.672,8.194,8.194v6.413h-12.512v-14.607h0Z" transform="translate(-33.244 59.589) rotate(-8.225)" style="fill: #ffc194;"/>
      <path d="M387.861,264.245c-.018,0-.037-.001-.055-.003-.243-.03-.417-.251-.387-.494.688-5.601-5.327-10.897-7.187-12.388-.084-.068-.133-.11-.143-.121-.171-.176-.166-.457.01-.627.169-.166.436-.167.607-.01l.08.064c1.951,1.564,8.258,7.133,7.514,13.189-.027.226-.219.39-.439.39Z" style="fill: #d4784c;"/>
      <path d="M395.366,260.817h-.005c-.245-.002-.441-.203-.438-.448.041-4.013-3.446-6.275-3.481-6.298-.206-.131-.268-.405-.136-.612.131-.207.405-.267.612-.136.16.102,3.937,2.555,3.892,7.056-.002.243-.2.439-.443.439Z" style="fill: #d4784c;"/>
      <path d="M403.723,262.188h-.005c-.245-.002-.441-.203-.438-.448.041-3.998-3.446-6.275-3.481-6.298-.206-.132-.268-.406-.136-.612s.403-.268.612-.136c.16.102,3.938,2.555,3.892,7.056-.002.243-.2.439-.443.439Z" style="fill: #d4784c;"/>
      <path d="M372.829,324.593c-.299,1.731-.378,5.867-.271,8.814l-.323-3.337c-.354-3.715-2.021-7.153-4.58-9.872-.404-.427-.785-.858-1.134-1.293v-.008s6.702,3.41,6.308,5.697Z" style="fill: #d4784c;"/>
      <path d="M403.814,306.937c-.831,4.659-.633,9.447.594,14.023l1.832,6.837c-2.199-8.218-4.028-8.479-4.242-13.592-.199-4.956,2.49-11.579,2.735-12.418l-.92,5.149Z" style="fill: #d4784c;"/>
      <path d="M352.33,386.08c-.2.59-.89,3.67-1.38,7.82-.01.02-.01.03-.01.05-.21,1.83-.39,3.87-.48,6.05h-.9c.06-1.3.14-2.54.25-3.73.07-.85.16-1.66.25-2.44,0-.03.01-.05.01-.07.54-4.47,1.24-7.44,1.42-7.97.08-.23.33-.35.56-.27.24.08.36.33.28.56Z" style="fill: #d48c15;"/>
      <path d="M432.635,397.448c-.195,0-.373-.129-.428-.325-.373-1.353-.796-2.717-1.293-4.167-4.373-12.727-11.753-22.763-17.173-28.94-5.627-6.43-10.403-10.23-12.143-11.341-.206-.132-.267-.406-.135-.613.133-.206.407-.266.613-.135,1.775,1.135,6.639,5,12.331,11.504,5.473,6.237,12.925,16.374,17.346,29.237.502,1.469.931,2.849,1.309,4.219.065.236-.073.481-.31.546-.04.011-.079.016-.118.016Z" style="fill: #d48c15;"/>
      <path d="M342.09,398.82c.12.22.45.71.95,1.18h-.42c-.18-.39-.35-.79-.53-1.18Z" style="fill: #d48c15;"/>
      <path d="M347.99,400c.79-.99,1.4-2.46,1.82-3.73.39-1.18.63-2.18.69-2.39-.21,1.84-.4,3.9-.5,6.12h-2.01Z" style="fill: #d48c15;"/>
      <path d="M431.405,392.794l-.07.018c-4.152-12.081-11.068-22.032-17.26-29.089l-.009-.023c.245.284,5.27,4.335,7.265,4.334,1.987.008,1.755-2.334,1.755-2.334l.017.055c2.487,7.821,5.368,17.088,8.301,27.04Z" style="fill: #d48c15;"/>
      <path d="M326.258,234.296c11.819-1.575,23.393-4.838,34.872-7.975.413-.113.237-.755-.177-.642-11.419,3.121-22.938,6.384-34.695,7.952-.418.056-.424.722,0,.665h0Z" style="fill: #fff;"/>
      <path d="M328.061,241.154c11.854-1.725,23.67-4.13,35.255-7.174.414-.109.238-.751-.177-.642-11.585,3.044-23.401,5.449-35.255,7.174-.422.061-.243.703.177.642h0Z" style="fill: #fff;"/>
      <path d="M329.77,247.293c11.868-1.973,23.672-4.428,35.403-7.092.388-.088.265-.622-.088-.654-.167-.015-.334-.03-.5-.045-.426-.038-.424.628,0,.665.167.015.333.03.5.044-.029-.218-.059-.436-.088-.654-11.731,2.664-23.535,5.119-35.403,7.092-.422.07-.243.711.177.642h0Z" style="fill: #fff;"/>
      <path d="M331.297,254.564c6.001-.906,12.002-1.811,18.003-2.717.422-.064.243-.705-.177-.642-6.001.906-12.002,1.811-18.003,2.717-.422.064-.243.705.177.642h0Z" style="fill: #fff;"/>
      <path d="M332.866,262.27c2.335-.427,4.669-.853,7.003-1.28.421-.077.242-.718-.177-.642-2.334.426-4.669.853-7.003,1.28-.421.077-.242.718.177.642h0Z" style="fill: #fff;"/>
    </g>
    <g id="_x34_">
      <path d="M145.968,180.487l-.923,3.327c-.603,2.227-1.189,4.454-1.748,6.681l-7.604-1.65c.621-3.256,1.207-6.921,1.739-10.213.124-.79.248-1.65.142-2.422-.151-1.322-.781-2.52-1.65-3.363l-2.591-2.751c-1.517,4.179-3.017,8.376-4.303,12.671l-15.253-7.382c3.327-4.783,6.353-9.689,9.361-14.64.293-.488,1.056-1.757,1.34-2.227,2.316-4.862,9.255-5.794,12.644-1.579,1.695,2.413,5.04,7.258,6.788,9.707,2.848,4.037,3.567,9.228,2.059,13.842Z" style="fill: #f7a27e;"/>
      <path d="M109.767,152.983h11.993v17.927c0,5.762-4.678,10.44-10.44,10.44h-1.554v-28.367h0Z" transform="translate(169.807 363.189) rotate(-160.71)" style="fill: #f7a27e;"/>
      <path d="M118.839,170.935c-.051,0-.103-.009-.154-.028-.23-.085-.347-.34-.262-.57,5.038-13.621,8.604-15.754,8.753-15.838.215-.119.484-.043.604.169.119.212.045.48-.165.602-.061.038-3.506,2.248-8.361,15.375-.066.179-.236.29-.416.29Z" style="fill: #a65137;"/>
      <path d="M178.718,160.106c-1.224,1.34-3.806,2.547-7.125,2.538-3.762-.009-7.267-.186-10.736-.506-4.002-.364-7.959-.923-12.245-1.624,0,0-5.315,11.295-6.051,12.644v.009c-.621,1.766-.834,3.798.399,5.395.816,1.056,2.165,1.153,3.638.79l-9.397,37.205c-1.81,1.562-2.937,3.611-4.099,7.063l-3.993,11.925-4.321,12.884-40.541-10,2.555-5.892,6.131-14.161c2.724-6.273,4.357-12.981,4.827-19.805l.878-12.822c.603-7.302,1.73-14.561,3.372-21.703l.177-.736c.923-4.037,4.942-6.548,8.979-5.626l3.7.852-3.105,13.469,13.141,3.895c4.161-6.646,8.5-13.256,12.892-19.769l.497-.736c1.695-2.76,3.505-5.679,7.844-5.102,2.023.266,24.649,4.791,31.632,6.46,2.076.532,2.192,2.005.949,3.354Z" style="fill: #f7a27e;"/>
      <path d="M108.361,169.221c-.049,0-.1-.008-.149-.026-.23-.083-.351-.336-.268-.567,3.735-10.461,6.502-12.085,6.619-12.149.214-.118.484-.041.603.174.117.212.041.48-.168.6-.054.033-2.663,1.719-6.217,11.674-.065.181-.236.294-.418.294Z" style="fill: #a65137;"/>
      <path d="M128.916,173.054c-.072,0-.144-.018-.212-.054-.215-.117-.294-.387-.177-.602l9.376-17.216c.117-.215.386-.295.602-.177.215.117.294.387.177.602l-9.376,17.216c-.08.147-.233.231-.39.231Z" style="fill: #a65137;"/>
      <path d="M142.144,178.282c-.165,0-.324-.093-.4-.252-1.785-3.718,3.213-10.38,3.427-10.662.148-.195.426-.233.622-.086.195.148.233.426.085.622-.049.064-4.886,6.51-3.334,9.742.106.221.013.486-.208.592-.062.03-.127.044-.191.044Z" style="fill: #a65137;"/>
      <path d="M148.478,161.622c-.028,0-.057-.003-.086-.008-.24-.047-.397-.28-.35-.521.466-2.374-.847-4.598-.86-4.62-.126-.21-.059-.483.151-.609.208-.125.481-.059.608.15.061.102,1.504,2.532.971,5.25-.041.211-.227.358-.435.358Z" style="fill: #a65137;"/>
      <path d="M145.376,152.52c-.163,0-.32-.09-.397-.246-.607-1.216-2.439-1.045-2.458-1.043-.253.018-.462-.153-.486-.397-.024-.244.153-.461.397-.486.098-.01,2.462-.228,3.341,1.53.109.219.021.485-.199.595-.063.032-.131.047-.198.047Z" style="fill: #a65137;"/>
      <path d="M143.927,153.611c-.163,0-.319-.09-.397-.246-.602-1.207-2.44-1.045-2.459-1.043-.246.026-.46-.155-.484-.398-.024-.244.153-.46.396-.485.099-.01,2.462-.227,3.341,1.53.109.219.021.485-.199.595-.063.032-.131.047-.198.047Z" style="fill: #a65137;"/>
      <path d="M84.252,238.424l40.533,10.003,4.322-12.887c-4.377,2.226-32.937-5.024-40.333-7.66l-4.522,10.545Z" style="fill: #b56e51;"/>
      <path d="M119.46,332.29c-1.9,11.77-4.7,25.28-8.67,40.65-2.18,8.45-4.73,17.46-7.68,27.06H0v-73.68c2.96-6.04,6.18-12.1,9.59-18.04,11-19.17,23.99-37.1,36.89-49.38,1.26-1.2,2.51-2.34,3.76-3.43.01-.01.02-.01.02-.02,3.14-2.72,6.25-5.07,9.31-7,6.2-3.9,13.8-4.84,20.83-2.76,4.38,1.29,8.98,2.93,13.65,4.9,5.15,2.17,9.94,4.55,14.24,7.02,8.18,4.71,13.49,13.17,14.33,22.57.98,10.88.79,27.83-3.16,52.11Z" style="fill: #a65638;"/>
      <path d="M176.024,157.745c-2.376-.528-4.193-1.447-4.059-2.051.134-.604,2.18-.171,4.556.358,2.376.528,4.046,1.153,3.912,1.757-.134.604-2.033.465-4.409-.064Z" style="fill: #da374a;"/>
      <path d="M186.535,161.446s-2.697,2.875-6.752,3.824c.311-.293.346-1.384.071-2.626-.266-1.216-.745-2.174-1.153-2.334,4.117-.683,7.835,1.136,7.835,1.136Z" style="fill: #fff;"/>
      <path d="M179.783,165.27c-.062.018-.124.027-.186.044l-.08.018-75.332,19.37-.018-.044c-.08.035-.16.071-.248.089-1.162.231-2.547-1.801-3.088-4.534-.541-2.733-.027-5.129,1.136-5.359h.027c.009-.009.018-.009.027-.009l76.352-14.481c.009,0,.027-.009.035-.009h.009c.098-.018.186-.035.284-.044.408.16.887,1.118,1.153,2.334.275,1.242.24,2.334-.071,2.626Z" style="fill: #291a1b;"/>
      <path d="M173.962,170.301c-11.011,15.359-14.126,25.51-19.432,34.117-1.189,2.192-4.144,5.821-11.313,8.802-2.68,1.118-4.569,2.067-6.016,3.336l9.397-37.205c3.487-.852,7.755-4.321,7.755-4.321-.009.009-.035.071-.071.195l13.23-10.417c4.72-4.525,11.535-1.597,6.451,5.492Z" style="fill: #f7a27e;"/>
      <path d="M173.725,168.56c-2.191,2.191-4.993,2.94-6.258,1.675-1.266-1.266-.516-4.068,1.675-6.258,2.191-2.191,4.993-2.941,6.258-1.675s.516,4.068-1.675,6.258Z" style="fill: #da374a;"/>
      <path d="M144.911,179.88c-.352,0-.686-.035-.999-.107-.994-.231-1.723-.817-2.167-1.743-.106-.221-.013-.486.208-.592.223-.107.486-.013.592.208.327.68.84,1.093,1.568,1.263,2.719.632,7.65-2.265,11.043-4.936.192-.152.472-.119.623.074.151.192.118.471-.074.623-3.333,2.624-7.739,5.21-10.794,5.21Z" style="fill: #a65137;"/>
      <path d="M102.44,183.082l-2.868.64c-1.722.385-3.431-.7-3.815-2.422h0c-.385-1.722.7-3.431,2.422-3.815l2.868-.641c1.723-.385,3.431.7,3.815,2.422h0c.385,1.722-.7,3.431-2.422,3.815Z" style="fill: #bf381d;"/>
      <path d="M83.804,226.893l.035.018c-.035.044-.062.08-.089.124l.053-.142Z" style="fill: #a65638;"/>
      <path d="M127.078,244.959l-.124.284c.044-.098.062-.195.08-.302l.044.018Z" style="fill: #a65638;"/>
      <path d="M127.033,244.941c-.018.106-.035.204-.08.302l-10.523,25.208-43.274-18.065,10.506-25.155c0-.018.009-.035.018-.053.018-.053.044-.098.071-.142.027-.044.053-.08.089-.124,1.695-2.218,11.943-.266,23.46,4.543,11.517,4.809,20.106,10.71,19.734,13.487Z" style="fill: #a65638;"/>
      <path d="M122.232,277.843c-.214,0-.403-.155-.437-.374-1.375-8.693-6.203-16.393-25.297-25.714-21.733-10.609-34.366-4.22-34.49-4.152-.216.112-.485.03-.599-.186-.114-.217-.032-.484.185-.6.525-.277,13.118-6.686,35.294,4.141,19.437,9.489,24.365,17.405,25.783,26.372.039.242-.126.47-.369.508-.023.004-.047.005-.07.005Z" style="fill: #6b2f1a;"/>
      <path d="M109.935,374.682c-.036,0-.073-.004-.109-.014-.238-.06-.381-.301-.321-.539.141-.555.273-1.11.396-1.656,3.984-17.329,1.065-31.507-1.03-38.416-.971-3.199-1.814-5.016-1.822-5.034-.103-.222-.008-.485.214-.589.221-.107.485-.01.59.213.035.076.877,1.886,1.868,5.152,2.121,6.994,5.076,21.344,1.046,38.871-.124.552-.258,1.115-.401,1.678-.051.2-.231.334-.43.334Z" style="fill: #6b2f1a;"/>
      <path d="M8.276,311.009c-.074,0-.149-.019-.218-.058-.213-.12-.289-.391-.168-.604.019-.033.479-.845,1.382-2.225,3.967-6.061,18.647-26.183,40.985-30.627,4.832-.967,9.806-1.148,14.781-.537.243.03.416.251.386.494-.03.244-.251.413-.495.387-4.881-.602-9.759-.423-14.499.526-22,4.377-36.497,24.255-40.417,30.243-.885,1.353-1.347,2.167-1.352,2.176-.082.144-.232.225-.387.225Z" style="fill: #6b2f1a;"/>
      <path d="M50.344,277.931c-21.987,4.374-36.379,23.833-40.7,30.434-.018-.027-.035-.062-.053-.089,11.003-19.166,23.993-37.098,36.885-49.378-2.751,3.052-5.617,7.933-3.602,14.108.852,2.609,3.709,4.117,7.471,4.924Z" style="fill: #6b2f1a;"/>
      <path d="M88.852,248.522c-.032,0-.064-.003-.096-.01-.239-.054-.391-.29-.337-.529.012-.057,1.278-5.69,4.518-13.059,3.38-7.684,7.134-6.64,7.293-6.592.234.072.366.32.295.555-.07.232-.314.364-.549.296-.06-.014-3.21-.76-6.227,6.099-3.203,7.282-4.452,12.838-4.464,12.892-.046.207-.229.348-.433.348Z" style="fill: #6b2f1a;"/>
      <path d="M110.31,259.342c-.061,0-.122-.012-.181-.038-.224-.101-.324-.362-.224-.587l4.84-10.82c.1-.224.36-.324.586-.224.224.101.324.362.224.587l-4.84,10.82c-.074.164-.235.262-.405.262Z" style="fill: #6b2f1a;"/>
      <path d="M119.464,332.287c-1.908,11.774-4.703,25.279-8.678,40.656-.151-.133-.31-.248-.452-.373,3.984-17.329.539-34.497-1.635-41.667,1.606,3.09,4.483,5.971,7.065,5.518,1.517-.266,2.742-1.979,3.7-4.135Z" style="fill: #6b2f1a;"/>
      <path d="M181.59,148.673c7.229-.23,14.459-.46,21.688-.69.427-.014.429-.679,0-.666-7.229.23-14.459.46-21.688.69-.427.014-.429.679,0,.666h0Z" style="fill: #fff;"/>
      <path d="M182.24,153.896c2.595-.028,5.191-.055,7.786-.083.428-.005.429-.67,0-.665-2.595.027-5.191.055-7.786.083-.428.005-.429.67,0,.666h0Z" style="fill: #fff;"/>
      <path d="M182.241,163.036c7.723-.33,15.447-.661,23.17-.991.427-.018.429-.684,0-.666-7.723.33-15.447.661-23.17.991-.427.018-.429.684,0,.666h0Z" style="fill: #fff;"/>
      <path d="M184.557,169.033c6.719-.667,13.458-1.09,20.207-1.268.427-.011.429-.677,0-.666-6.749.178-13.489.601-20.207,1.268-.422.042-.426.708,0,.666h0Z" style="fill: #fff;"/>
    </g>
    <g id="_x31_0">
      <path d="M91.17,100.541H25.659c1.874-1.884,5.413-3.49,9.574-4.158,1.196-.188,2.358-.285,3.459-.299,2.958-.038,5.882-.868,8.505-2.492,1.896-1.174,4.052-2.181,6.393-2.932,7.065-2.279,13.696-1.589,16.931,1.354,1.8,1.638,4.086,2.382,6.347,2.153,7.386-.748,14.152,2.598,14.304,6.372,0,0,0,.001-.002.002Z" style="fill: #fff0da;"/>
      <path d="M157.217,337.495h-86.883c2.486-2.107,7.179-3.902,12.697-4.648,1.586-.21,3.127-.318,4.588-.334,3.923-.042,7.801-.97,11.28-2.786,2.514-1.312,5.374-2.438,8.478-3.279,9.37-2.548,18.164-1.777,22.455,1.514,2.387,1.831,5.419,2.663,8.417,2.407,9.795-.837,18.768,2.904,18.97,7.124,0,0-.001.001-.002.002Z" style="fill: #fff0da;"/>
      <path d="M554.885,381.002c-.277-3.847-7.344-6.019-15.543-4.842l-.308.045c-3.625.53-7.272-.404-10.324-2.431-5.738-3.81-15.288-6.306-26.098-6.306-6.365,0-14.085,2.167-19.605,4.056-4.319,1.478-8.87,2.068-13.432,1.906-2.274-.081-4.719.048-7.246.414-7.398,1.069-13.559,3.891-16.485,7.164h109.035s.004-.004.006-.006Z" style="fill: #b6ecf0;"/>
      <path d="M582.557,115.091c-.213-2.958-5.648-4.628-11.954-3.724l-.236.035c-2.788.408-5.593-.311-7.94-1.87-4.413-2.93-11.758-4.85-20.071-4.85-4.895,0-10.833,1.667-15.078,3.12-3.321,1.137-6.822,1.591-10.33,1.466-1.749-.062-3.629.037-5.573.318-5.69.822-10.428,2.993-12.678,5.51h83.854s.003-.003.004-.005Z" style="fill: #fff0da;"/>
      <path d="M442.749,23.463c-.147-2.047-3.908-3.202-8.271-2.576l-.163.024c-1.929.282-3.87-.215-5.494-1.294-3.053-2.028-8.135-3.356-13.886-3.356-3.387,0-7.495,1.153-10.432,2.158-2.298.786-4.72,1.101-7.147,1.014-1.21-.043-2.511.026-3.856.22-3.937.569-7.215,2.071-8.771,3.812h58.018s.002-.002.003-.003Z" style="fill: #b6ecf0;"/>
      <path d="M344.622,58.592H101.694c6.95-5.891,20.073-10.909,35.501-12.997,4.434-.586,8.743-.89,12.828-.934,10.97-.118,21.813-2.712,31.539-7.79,7.029-3.67,15.027-6.818,23.706-9.167,26.198-7.123,50.788-4.968,62.785,4.233,6.675,5.12,15.153,7.446,23.535,6.73,27.387-2.339,52.477,8.12,53.041,19.919-.002.002-.003.003-.006.006Z" style="fill: #b6ecf0;"/>
    </g>
  </g>
</svg>